<svg width="17" height="17" viewBox="0 0 17 17" fill="none" xmlns="http://www.w3.org/2000/svg">
<path fill-rule="evenodd" clip-rule="evenodd" d="M8.9476 16.7763C13.2714 16.7763 16.7765 13.2712 16.7765 8.94736C16.7765 4.62355 13.2714 1.11841 8.9476 1.11841C4.62379 1.11841 1.11865 4.62355 1.11865 8.94736C1.11865 13.2712 4.62379 16.7763 8.9476 16.7763ZM11.7823 7.76725C12.0175 7.53207 12.0175 7.15076 11.7823 6.91558C11.5471 6.68039 11.1658 6.68039 10.9306 6.91558L8.14459 9.70161L6.96449 8.52151C6.72931 8.28633 6.348 8.28633 6.11281 8.52151C5.87763 8.7567 5.87763 9.13801 6.11281 9.37319L7.71875 10.9791C7.83169 11.0921 7.98487 11.1555 8.14459 11.1555C8.30431 11.1555 8.45749 11.0921 8.57043 10.9791L11.7823 7.76725Z" fill="#64CCC5"/>
</svg>
