<svg width="27" height="23" viewBox="0 0 27 23" fill="none" xmlns="http://www.w3.org/2000/svg">
<path d="M1 11.4167C1 8.18096 1 6.56311 1.52861 5.28692C2.23343 3.58534 3.58534 2.23343 5.28692 1.52861C6.56311 1 8.18096 1 11.4167 1H15.5833C18.819 1 20.4369 1 21.7131 1.52861C23.4147 2.23343 24.7666 3.58534 25.4714 5.28692C26 6.56311 26 8.18096 26 11.4167V11.4167C26 14.6524 26 16.2702 25.4714 17.5464C24.7666 19.248 23.4147 20.5999 21.7131 21.3047C20.4369 21.8333 18.819 21.8333 15.5833 21.8333H11.4167C8.18096 21.8333 6.56311 21.8333 5.28692 21.3047C3.58534 20.5999 2.23343 19.248 1.52861 17.5464C1 16.2702 1 14.6524 1 11.4167V11.4167Z" stroke="#FBFBFB" stroke-width="1.10262" stroke-linejoin="round"/>
<path d="M1 5.86084L5.82619 9.61437C9.08956 12.1524 10.7212 13.4215 12.5851 13.6693C13.1927 13.7501 13.8084 13.7501 14.416 13.6692C16.2798 13.4213 17.9115 12.1522 21.1747 9.61402L26 5.86084" stroke="#FBFBFB" stroke-width="1.10262" stroke-linejoin="round"/>
</svg>
