<svg width="21" height="22" viewBox="0 0 21 22" fill="none" xmlns="http://www.w3.org/2000/svg">
<path d="M10.153 0.772949C4.52307 0.772949 -0.0410662 5.30357 1.09177 10.9668C1.8453 14.7339 5.60563 18.2504 8.03922 20.1829C8.83462 20.8146 9.23231 21.1304 9.84987 21.2138C10.0211 21.2369 10.285 21.2369 10.4562 21.2138C11.0737 21.1304 11.4714 20.8146 12.2668 20.183C14.7005 18.2505 18.4609 14.734 19.2142 10.9668C20.3468 5.30357 15.7829 0.772949 10.153 0.772949Z" stroke="#FBFBFB" stroke-width="1.5" stroke-linejoin="round"/>
<path d="M13.5508 10.0041C13.5508 11.8807 12.0295 13.4021 10.1529 13.4021C8.27622 13.4021 6.7549 11.8807 6.7549 10.0041C6.7549 8.12744 8.27622 6.60612 10.1529 6.60612C12.0295 6.60612 13.5508 8.12744 13.5508 10.0041Z" stroke="#FBFBFB" stroke-width="1.5" stroke-linejoin="round"/>
</svg>
